<?xml version="1.0" standalone="no"?><!DOCTYPE svg PUBLIC "-//W3C//DTD SVG 1.1//EN" "http://www.w3.org/Graphics/SVG/1.1/DTD/svg11.dtd"><svg t="1510220119795" class="icon" style="" viewBox="0 0 1024 1024" version="1.1" xmlns="http://www.w3.org/2000/svg" p-id="4010" xmlns:xlink="http://www.w3.org/1999/xlink" width="128" height="128"><defs><style type="text/css"></style></defs><path d="M793.0326 265.0413c52.9902 60.2546 86.899 137.6822 92.3142 222.8646l97.360715 0c-5.6404-111.9991-50.3796-213.6871-120.8404-291.7003L793.0326 265.0413zM265.0425 230.9674c60.2546-52.9902 137.6822-86.899 222.8634-92.3142L487.9059 41.291294c-111.9991 5.6404-213.6859 50.3796-291.699 120.8392L265.0425 230.9674zM536.0941 41.2913l0 97.360715c85.1811 5.4164 162.61 39.324 222.8646 92.3142l68.8357-68.8369C749.7812 91.6709 648.0932 46.9317 536.0941 41.2913zM230.9686 758.9575C177.9772 698.7041 144.0696 621.2753 138.6532 536.0941L41.292499 536.0941c5.6404 112.0003 50.3796 213.6871 120.8392 291.699L230.9686 758.9575zM138.6532 487.9059c5.4164-85.1811 39.324-162.6088 92.3142-222.8634l-68.8357-68.8357C91.6721 274.2188 46.9329 375.9068 41.2925 487.9059L138.653214 487.9059zM885.3468 536.0941c-5.4152 85.1811-39.324 162.61-92.3142 222.8634l68.8369 68.8381C932.3279 749.7812 977.0683 648.0944 982.7087 536.0941L885.346786 536.0941zM487.9059 885.3456c-85.1811-5.4139-162.6088-39.3228-222.8634-92.313l-68.8369 68.8357C274.2188 932.3267 375.9068 977.0683 487.9059 982.7087L487.9059 885.345581zM758.9575 793.0326C698.7041 846.024 621.2753 879.9316 536.0941 885.3456l0 97.36192c111.9991-5.6404 213.6871-50.3808 291.7003-120.8404L758.9575 793.0326z" p-id="4011" fill="#1296db"></path></svg>